<svg width="63" height="49" viewBox="0 0 63 49" fill="none" xmlns="http://www.w3.org/2000/svg">
<path d="M61.2481 24.2161C61.5758 23.8792 62.1587 23.6046 63 23.3956V22.3848H53.0084V23.3956C53.8497 23.6046 54.4326 23.8792 54.7603 24.2161C55.088 24.553 55.2518 25.046 55.2518 25.698V40.2489H45.9975C42.4275 40.2146 39.223 39.6811 36.3871 38.6547C38.7661 36.7578 40.6567 34.4959 42.062 31.8659C43.6753 28.8147 44.4819 25.5982 44.4819 22.21C44.4819 17.3494 42.9033 13.0378 39.7492 9.27213C38.7251 8.05539 37.5719 6.96033 36.302 5.97447C39.1915 4.87005 42.4243 4.31784 46.0007 4.31784H60.7597L56.3988 0H46.0007C42.0998 0.0249586 38.4447 0.577168 35.0354 1.66911C33.7939 2.07156 32.6154 2.5333 31.5032 3.05431C30.3877 2.5333 29.2124 2.07156 27.9709 1.66911C24.5585 0.577168 20.9034 0.0249586 17.0025 0H6.60753L2.24347 4.31784H17.0025C20.5788 4.31784 23.8117 4.87317 26.7011 5.97447C25.4313 6.96033 24.2749 8.05539 23.254 9.27213C20.0999 13.0378 18.5213 17.3494 18.5213 22.21C18.5213 25.5982 19.3279 28.8178 20.9412 31.8659C22.3434 34.4959 24.2371 36.7578 26.616 38.6547C23.777 39.6811 20.5757 40.2146 17.0057 40.2489H7.75133V25.698C7.75133 25.046 7.91517 24.5499 8.24287 24.2161C8.57057 23.8792 9.1535 23.6046 9.9948 23.3956V22.3848H0V23.3956C0.841302 23.6046 1.42738 23.8792 1.75193 24.2161C2.07962 24.553 2.24347 25.046 2.24347 25.698V45.6867C2.24347 46.3388 2.07962 46.8348 1.75193 47.1687C1.42423 47.5056 0.841302 47.7802 0 47.9892V49H9.99165V47.9892C9.15034 47.7802 8.56742 47.5056 8.23972 47.1687C7.91202 46.8317 7.74817 46.3388 7.74817 45.6867V44.5792H17.0025C22.586 44.5667 27.4164 43.5965 31.5 41.6809C35.5836 43.5996 40.414 44.5667 45.9975 44.5792H55.2518V45.6867C55.2518 46.3388 55.088 46.8348 54.7603 47.1687C54.4326 47.5056 53.8497 47.7802 53.0084 47.9892V49H63V47.9892C62.1587 47.7802 61.5726 47.5056 61.2481 47.1687C60.9204 46.8317 60.7565 46.3388 60.7565 45.6867V25.698C60.7565 25.046 60.9204 24.5499 61.2481 24.2161ZM32.1396 35.6908C31.9317 35.8499 31.7174 35.9997 31.5 36.1494C31.2857 35.9997 31.0715 35.8499 30.8604 35.6908C26.4648 32.39 24.2686 27.9568 24.2686 22.3848C24.2686 16.8127 26.5688 12.1268 31.1723 8.76359C31.2794 8.6856 31.3897 8.61072 31.4968 8.53273C31.604 8.61072 31.7143 8.68248 31.8214 8.76359C36.4249 12.1268 38.7251 16.6661 38.7251 22.3848C38.7251 28.1034 36.5289 32.39 32.1333 35.6908H32.1396Z" fill="#01655C"/>
</svg>
