<svg width="88" height="83" viewBox="0 0 88 83" fill="none" xmlns="http://www.w3.org/2000/svg">
<path d="M55.9313 30.1818C58.1194 30.1818 60.2178 31.0762 61.765 32.6681C63.3121 34.26 64.1813 36.4191 64.1813 38.6705V62.2462C64.1813 67.7505 62.0562 73.0293 58.2736 76.9214C54.4909 80.8134 49.3605 83 44.011 83C38.6615 83 33.5311 80.8134 29.7484 76.9214C25.9658 73.0293 23.8407 67.7505 23.8407 62.2462V38.6705C23.8407 36.4191 24.7099 34.26 26.257 32.6681C27.8042 31.0762 29.9026 30.1818 32.0907 30.1818H55.9313ZM55.9313 35.8409H32.0907C31.3613 35.8409 30.6618 36.139 30.1461 36.6697C29.6304 37.2003 29.3407 37.92 29.3407 38.6705V62.2462C29.3407 66.2496 30.8863 70.089 33.6375 72.9198C36.3887 75.7506 40.1202 77.3409 44.011 77.3409C47.9018 77.3409 51.6333 75.7506 54.3845 72.9198C57.1357 70.089 58.6813 66.2496 58.6813 62.2462V38.6705C58.6813 37.92 58.3916 37.2003 57.8759 36.6697C57.3601 36.139 56.6607 35.8409 55.9313 35.8409ZM8.25 30.1818H23.4887C22.0161 31.7585 20.9816 33.7128 20.493 35.8409H8.25C7.52066 35.8409 6.82119 36.139 6.30546 36.6697C5.78974 37.2003 5.5 37.92 5.5 38.6705V58.4735C5.49856 60.3668 5.95876 62.2303 6.83846 63.8933C7.71816 65.5562 8.98926 66.9655 10.5354 67.9922C12.0815 69.0188 13.8532 69.63 15.6883 69.7697C17.5234 69.9094 19.3632 69.5732 21.0393 68.7919C21.527 70.6405 22.2273 72.3986 23.1073 74.0435C20.5952 75.1731 17.8492 75.6408 15.1174 75.4045C12.3855 75.1681 9.75394 74.2351 7.46047 72.6897C5.167 71.1443 3.28391 69.0353 1.98135 66.5533C0.6788 64.0712 -0.0021612 61.2943 5.15273e-06 58.4735V38.6705C5.15273e-06 36.4191 0.869199 34.26 2.41637 32.6681C3.96355 31.0762 6.06197 30.1818 8.25 30.1818ZM79.75 30.1818C81.938 30.1818 84.0365 31.0762 85.5836 32.6681C87.1308 34.26 88 36.4191 88 38.6705V58.4773C88.0011 61.2961 87.32 64.0709 86.0183 66.5512C84.7165 69.0314 82.835 71.1392 80.5435 72.6842C78.2521 74.2292 75.6228 75.1628 72.893 75.4008C70.1632 75.6387 67.4187 75.1736 64.9073 74.0473L65.1127 73.6625C65.8973 72.1308 66.5317 70.5047 66.9863 68.7995C68.6616 69.5751 70.499 69.9066 72.3308 69.7639C74.1626 69.6211 75.9305 69.0086 77.4731 67.9822C79.0158 66.9558 80.284 65.5482 81.1621 63.8879C82.0401 62.2276 82.5001 60.3675 82.5 58.4773V38.6705C82.5 37.9207 82.2108 37.2015 81.6958 36.671C81.1809 36.1405 80.4824 35.8419 79.7537 35.8409H67.5327C67.043 33.7124 66.0072 31.7581 64.5333 30.1818H79.75ZM44 0C45.6853 -3.65423e-08 47.3541 0.341545 48.9111 1.00514C50.4681 1.66873 51.8829 2.64137 53.0745 3.86752C54.2662 5.09368 55.2115 6.54934 55.8564 8.15138C56.5014 9.75343 56.8333 11.4705 56.8333 13.2045C56.8333 14.9386 56.5014 16.6557 55.8564 18.2577C55.2115 19.8598 54.2662 21.3154 53.0745 22.5416C51.8829 23.7677 50.4681 24.7404 48.9111 25.404C47.3541 26.0675 45.6853 26.4091 44 26.4091C40.5964 26.4091 37.3322 25.0179 34.9255 22.5416C32.5187 20.0652 31.1667 16.7066 31.1667 13.2045C31.1667 9.70248 32.5187 6.34385 34.9255 3.86752C37.3322 1.39119 40.5964 7.38005e-08 44 0ZM73.3443 3.77273C74.7889 3.77273 76.2193 4.06548 77.5538 4.63427C78.8884 5.20307 80.1011 6.03676 81.1225 7.08775C82.144 8.13874 82.9542 9.38644 83.507 10.7596C84.0598 12.1328 84.3443 13.6046 84.3443 15.0909C84.3443 16.5772 84.0598 18.049 83.507 19.4222C82.9542 20.7954 82.144 22.0431 81.1225 23.0941C80.1011 24.1451 78.8884 24.9788 77.5538 25.5475C76.2193 26.1163 74.7889 26.4091 73.3443 26.4091C70.4269 26.4091 67.6291 25.2166 65.5662 23.0941C63.5033 20.9715 62.3443 18.0927 62.3443 15.0909C62.3443 12.0891 63.5033 9.21032 65.5662 7.08775C67.6291 4.96518 70.4269 3.77273 73.3443 3.77273ZM14.6557 3.77273C16.1002 3.77273 17.5306 4.06548 18.8652 4.63427C20.1998 5.20307 21.4124 6.03676 22.4338 7.08775C23.4553 8.13874 24.2655 9.38644 24.8183 10.7596C25.3711 12.1328 25.6557 13.6046 25.6557 15.0909C25.6557 16.5772 25.3711 18.049 24.8183 19.4222C24.2655 20.7954 23.4553 22.0431 22.4338 23.0941C21.4124 24.1451 20.1998 24.9788 18.8652 25.5475C17.5306 26.1163 16.1002 26.4091 14.6557 26.4091C11.7383 26.4091 8.9404 25.2166 6.8775 23.0941C4.8146 20.9715 3.65567 18.0927 3.65567 15.0909C3.65567 12.0891 4.8146 9.21032 6.8775 7.08775C8.9404 4.96518 11.7383 3.77273 14.6557 3.77273ZM44 5.65909C42.0551 5.65909 40.1898 6.45406 38.8146 7.8691C37.4393 9.28415 36.6667 11.2034 36.6667 13.2045C36.6667 15.2057 37.4393 17.1249 38.8146 18.54C40.1898 19.955 42.0551 20.75 44 20.75C45.9449 20.75 47.8102 19.955 49.1854 18.54C50.5607 17.1249 51.3333 15.2057 51.3333 13.2045C51.3333 11.2034 50.5607 9.28415 49.1854 7.8691C47.8102 6.45406 45.9449 5.65909 44 5.65909ZM73.3443 9.43182C72.6221 9.43182 71.9069 9.57819 71.2396 9.86259C70.5723 10.147 69.966 10.5638 69.4552 11.0893C68.9445 11.6148 68.5394 12.2387 68.263 12.9253C67.9866 13.6119 67.8443 14.3477 67.8443 15.0909C67.8443 15.8341 67.9866 16.57 68.263 17.2565C68.5394 17.9431 68.9445 18.567 69.4552 19.0925C69.966 19.618 70.5723 20.0348 71.2396 20.3192C71.9069 20.6036 72.6221 20.75 73.3443 20.75C74.803 20.75 76.202 20.1538 77.2334 19.0925C78.2649 18.0312 78.8443 16.5918 78.8443 15.0909C78.8443 13.59 78.2649 12.1506 77.2334 11.0893C76.202 10.028 74.803 9.43182 73.3443 9.43182ZM14.6557 9.43182C13.9334 9.43182 13.2182 9.57819 12.5509 9.86259C11.8836 10.147 11.2773 10.5638 10.7666 11.0893C10.2559 11.6148 9.85073 12.2387 9.57433 12.9253C9.29793 13.6119 9.15567 14.3477 9.15567 15.0909C9.15567 15.8341 9.29793 16.57 9.57433 17.2565C9.85073 17.9431 10.2559 18.567 10.7666 19.0925C11.2773 19.618 11.8836 20.0348 12.5509 20.3192C13.2182 20.6036 13.9334 20.75 14.6557 20.75C16.1144 20.75 17.5133 20.1538 18.5448 19.0925C19.5762 18.0312 20.1557 16.5918 20.1557 15.0909C20.1557 13.59 19.5762 12.1506 18.5448 11.0893C17.5133 10.028 16.1144 9.43182 14.6557 9.43182Z" fill="#01655C"/>
</svg>
