<svg width="30" height="12" viewBox="0 0 30 12" fill="none" xmlns="http://www.w3.org/2000/svg">
<path d="M26.9224 8.85913C27.1855 8.56659 27.4486 8.27524 27.7117 7.9827C27.9892 7.68184 28.3785 7.24184 28.8154 6.68293C29.1369 6.27147 29.3 6.06099 29.444 5.8065C29.5667 5.59007 29.9869 4.82662 29.9798 3.8182C29.9691 2.25205 28.9345 1.22341 28.7952 1.08903C28.7237 1.02006 27.5486 -0.0787443 25.9497 0.00449829C24.1496 0.0984435 22.4732 1.65746 21.9577 3.88241C21.9577 3.88241 21.8708 4.477 21.866 4.67678H24.8437L24.9211 4.05009C25.0592 2.92869 25.5485 2.83475 25.9961 2.83475C26.3093 2.83475 26.5498 2.92631 26.7533 3.12134C26.9522 3.31161 27.0403 3.52447 27.0403 3.81106C27.0403 3.94782 26.9926 4.18922 26.7641 4.565L26.7581 4.5757C26.6486 4.76359 26.4819 5.00619 26.2616 5.29754C26.0307 5.60315 25.7402 5.9718 25.3985 6.39039L20.8636 11.8749H24.6972L26.9224 8.85913L26.92 11.8737H30V8.85913H26.9224Z" fill="#CFCFCF"/>
<path d="M5.95285 0.00439453H2.97643H0V2.97734H2.97643H5.95285L2.97643 5.11787V11.8962H5.95285V2.97734H8.92928V0.00439453H5.95285Z" fill="#CFCFCF"/>
<path d="M16.4299 0.00439453V4.52328H13.4534V0.00439453H10.477V4.52328V7.49622H13.4534L10.477 9.63675V11.8962H13.4534V7.49622H16.4299V11.8962H19.4063V7.49622V4.52328V0.00439453H16.4299Z" fill="#CFCFCF"/>
</svg>
