<svg width="291" height="43" viewBox="0 0 291 43" fill="none" xmlns="http://www.w3.org/2000/svg">
<path d="M129.173 27.3887C129.047 27.4733 128.837 27.5142 128.535 27.5142H121.115V23.4183H125.8C126.094 23.4183 126.301 23.4593 126.428 23.5439C126.552 23.6284 126.652 23.7976 126.722 24.0487H127.013V21.7101H126.722C126.649 21.9612 126.555 22.1276 126.433 22.2149C126.312 22.2995 126.102 22.3432 125.8 22.3432H121.115V18.613H128.47C128.769 18.613 128.982 18.6539 129.103 18.7385C129.225 18.8231 129.322 18.9923 129.392 19.2433H129.68V16.9047H129.392C129.319 17.1558 129.225 17.3222 129.103 17.4096C128.982 17.4942 128.772 17.5378 128.47 17.5378H118.894V17.8052C119.167 17.8707 119.347 17.9608 119.441 18.0699C119.536 18.1818 119.582 18.3756 119.582 18.6539V27.4787C119.582 27.7489 119.536 27.9426 119.447 28.0572C119.358 28.1719 119.172 28.2619 118.894 28.3274V28.5948H128.543C128.842 28.5948 129.055 28.6385 129.176 28.7231C129.297 28.8077 129.392 28.9768 129.456 29.2252H129.755V26.8866H129.456C129.392 27.1404 129.297 27.3068 129.173 27.3914V27.3887ZM113.417 17.8025C113.689 17.868 113.869 17.9581 113.964 18.0672C114.058 18.1791 114.104 18.3728 114.104 18.6512V22.3623H106.18V18.6512C106.18 18.3756 106.226 18.1791 106.32 18.0672C106.411 17.9553 106.595 17.868 106.867 17.8025V17.5351H103.962V17.8025C104.234 17.868 104.415 17.9581 104.509 18.0672C104.601 18.1791 104.649 18.3728 104.649 18.6512V27.476C104.649 27.7462 104.604 27.9399 104.509 28.0545C104.415 28.1691 104.234 28.2592 103.962 28.3247V28.5921H106.867V28.3247C106.595 28.2592 106.411 28.1691 106.32 28.0545C106.226 27.9399 106.18 27.7462 106.18 27.476V23.4374H114.104V27.476C114.104 27.7462 114.058 27.9399 113.964 28.0545C113.869 28.1691 113.689 28.2592 113.417 28.3247V28.5921H116.321V28.3247C116.049 28.2592 115.866 28.1691 115.774 28.0545C115.68 27.9399 115.634 27.7462 115.634 27.476V18.6512C115.634 18.381 115.68 18.1873 115.774 18.0727C115.866 17.9581 116.049 17.868 116.321 17.8025V17.5351H113.417V17.8025ZM131.989 17.8025C132.261 17.868 132.442 17.9581 132.536 18.0672C132.63 18.1791 132.676 18.3728 132.676 18.6512V27.476C132.676 27.7462 132.63 27.9399 132.536 28.0545C132.442 28.1691 132.261 28.2592 131.989 28.3247V28.5921H134.894V28.3247C134.621 28.2592 134.438 28.1691 134.347 28.0545C134.252 27.9399 134.207 27.7462 134.207 27.476V18.6512C134.207 18.3756 134.252 18.1791 134.347 18.0672C134.438 17.9553 134.621 17.868 134.894 17.8025V17.5351H131.989V17.8025ZM45.4675 20.5286C46.1896 20.7141 46.6907 20.9542 46.9709 21.249C47.2512 21.5437 47.3913 21.9775 47.3913 22.5506V35.3185H39.4537C36.3902 35.2885 33.6446 34.8219 31.2089 33.9186C33.2485 32.2541 34.8732 30.2703 36.0749 27.9617C37.4571 25.2848 38.1496 22.4605 38.1496 19.4889C38.1496 15.2266 36.797 11.4417 34.0892 8.1372C33.2108 7.07025 32.222 6.10972 31.1307 5.2447C33.6096 4.27599 36.3821 3.79027 39.451 3.79027H52.1118L48.3693 0H39.451C36.1046 0.0218302 32.971 0.504823 30.0476 1.46262C28.9833 1.81463 27.9729 2.22122 27.0164 2.67966C26.0599 2.22122 25.0496 1.81736 23.9853 1.46262C21.0646 0.507552 17.931 0.024559 14.5846 0.00272877H5.66626L1.92378 3.79299H14.5846C17.6535 3.79299 20.426 4.27872 22.9048 5.24743C21.8163 6.11245 20.8248 7.07298 19.9464 8.13993C17.2413 11.4445 15.886 15.2266 15.886 19.4916C15.886 22.4633 16.5785 25.2875 17.9607 27.9645C19.1651 30.273 20.7871 32.2568 22.8267 33.9214C20.391 34.8219 17.6454 35.2912 14.5819 35.3212H6.64432V22.5533C6.64432 21.9803 6.78442 21.5464 7.06464 21.2517C7.34485 20.957 7.846 20.7168 8.5681 20.5313V19.6444H0V20.5313C0.722091 20.7168 1.22324 20.957 1.50346 21.2517C1.78367 21.5464 1.92378 21.9803 1.92378 22.5533V40.0911C1.92378 40.6642 1.78367 41.098 1.50346 41.3927C1.22324 41.6875 0.722091 41.9276 0 42.1132V43H8.57079V42.1132C7.8487 41.9276 7.34755 41.6875 7.06733 41.3927C6.78712 41.098 6.64701 40.6642 6.64701 40.0911V39.1197H14.5846C19.3725 39.1088 23.5165 38.2574 27.0191 36.5765C30.5218 38.2601 34.6658 39.1088 39.4537 39.1197H47.3913V40.0911C47.3913 40.6642 47.2512 41.098 46.9709 41.3927C46.6907 41.6875 46.1896 41.9276 45.4675 42.1132V43H54.0383V42.1132C53.3162 41.9276 52.815 41.6875 52.5348 41.3927C52.2546 41.098 52.1145 40.6642 52.1145 40.0911V22.5533C52.1145 21.9803 52.2546 21.5464 52.5348 21.2517C52.815 20.957 53.3162 20.7168 54.0383 20.5313V19.6444H45.4675V20.5313V20.5286ZM27.5661 31.3154C27.3856 31.4546 27.2024 31.5855 27.0191 31.7193C26.8332 31.5883 26.65 31.4546 26.4722 31.3154C22.7028 28.4202 20.8194 24.5289 20.8194 19.6417C20.8194 14.7545 22.7944 10.6422 26.7416 7.69241C26.8332 7.62419 26.9275 7.5587 27.0218 7.49048C27.1134 7.5587 27.2104 7.62146 27.302 7.69241C31.2493 10.6422 33.2243 14.6262 33.2243 19.6417C33.2243 24.6572 31.3409 28.4202 27.5715 31.3154H27.5661ZM256.337 15.9251C256.243 15.8132 256.197 15.7205 256.197 15.6495C256.197 15.5322 256.264 15.4176 256.396 15.3084C256.528 15.1993 256.666 15.1447 256.808 15.1447C256.959 15.1447 257.102 15.1665 257.237 15.2129L258.781 15.7368C259.088 15.8433 259.365 15.8951 259.616 15.8951C260.144 15.8951 260.637 15.5786 261.095 14.9482C261.189 14.8309 261.278 14.7708 261.362 14.7708C261.419 14.7708 261.497 14.7899 261.599 14.8309L261.75 14.6044L260.357 13.7748L260.184 13.9631C260.298 14.075 260.357 14.176 260.357 14.2688C260.357 14.3943 260.295 14.5089 260.168 14.6153C260.044 14.7217 259.91 14.7736 259.767 14.7736C259.611 14.7736 259.441 14.7408 259.263 14.6753L257.708 14.1432C257.487 14.0641 257.28 14.0259 257.086 14.0259C256.437 14.0259 255.906 14.3015 255.499 14.8554C255.378 15.0083 255.251 15.0819 255.124 15.0819C255.068 15.0819 254.992 15.0683 254.898 15.041L254.758 15.2184L256.173 16.1079L256.334 15.9306L256.337 15.9251ZM79.3842 15.846C78.9127 15.5704 78.3765 15.3794 77.7757 15.2729C77.1748 15.1665 76.3342 15.1147 75.2564 15.1147H67.5586V15.4312C67.8173 15.4967 67.9951 15.584 68.0948 15.6877C68.1945 15.7941 68.2457 15.9442 68.2457 16.1407V27.5524C68.2457 27.7571 68.1945 27.9099 68.0948 28.0163C67.9951 28.1227 67.8146 28.2073 67.5586 28.2728V28.5894H70.614V28.2728C70.3554 28.2073 70.1776 28.12 70.0779 28.0163C69.9782 27.9099 69.927 27.7571 69.927 27.5524V22.5287H75.2564C76.6009 22.5287 77.6356 22.4278 78.3603 22.2286C79.0851 22.0294 79.686 21.6746 80.1575 21.1671C80.7718 20.5095 81.079 19.7181 81.079 18.7985C81.079 18.1272 80.9119 17.5215 80.5751 16.9812C80.276 16.5009 79.8773 16.1216 79.3842 15.846ZM78.3038 20.8124C77.9885 20.9843 77.6329 21.0989 77.2368 21.1589C76.8407 21.2189 76.2345 21.249 75.4208 21.249H69.9297V16.4027H75.4208C76.2426 16.4027 76.8515 16.4327 77.2422 16.4927C77.6356 16.5527 77.9885 16.6673 78.3038 16.8393C79.0339 17.2349 79.3977 17.898 79.3977 18.834C79.3977 19.77 79.0339 20.4221 78.3038 20.8178V20.8124ZM98.7379 17.8025C99.01 17.868 99.1905 17.9581 99.2848 18.0672C99.3791 18.1791 99.4249 18.3728 99.4249 18.6512V26.3299L92.3387 19.025C92.0666 18.7494 91.9319 18.512 91.9319 18.3155C91.9319 18.0863 92.1178 17.9144 92.4896 17.8025V17.5351H88.5882V17.8025C88.8603 17.868 89.0408 17.9581 89.1351 18.0672C89.2294 18.1791 89.2752 18.3728 89.2752 18.6512V27.476C89.2752 27.7462 89.2294 27.9399 89.1405 28.0545C89.0516 28.1691 88.8657 28.2592 88.5882 28.3247V28.5921H91.2367V28.3247C90.9565 28.2592 90.7733 28.1691 90.6844 28.0545C90.5955 27.9399 90.5497 27.7462 90.5497 27.476V19.2624L98.2906 27.1786C98.6328 27.5333 98.8052 27.7816 98.8052 27.9181C98.8052 28.1036 98.6193 28.2373 98.2475 28.3219V28.5894H101.389V28.3219C101.109 28.2564 100.926 28.1664 100.837 28.0518C100.748 27.9372 100.702 27.7434 100.702 27.4733V18.6484C100.702 18.3728 100.748 18.1764 100.842 18.0645C100.934 17.9526 101.117 17.8653 101.389 17.7998V17.5324H98.7406V17.7998L98.7379 17.8025ZM83.0944 17.8025C83.3665 17.868 83.547 17.9581 83.6413 18.0672C83.7356 18.1791 83.7814 18.3728 83.7814 18.6512V27.476C83.7814 27.7462 83.7356 27.9399 83.6413 28.0545C83.547 28.1691 83.3665 28.2592 83.0944 28.3247V28.5921H85.9989V28.3247C85.7268 28.2592 85.5435 28.1691 85.4519 28.0545C85.3603 27.9399 85.3118 27.7462 85.3118 27.476V18.6512C85.3118 18.3756 85.3576 18.1791 85.4519 18.0672C85.5435 17.9553 85.7268 17.868 85.9989 17.8025V17.5351H83.0944V17.8025ZM218.842 17.8025C219.2 17.9008 219.378 18.0454 219.378 18.2364C219.378 18.3346 219.292 18.542 219.12 18.8585L215.299 25.9179L211.5 18.8585C211.322 18.5229 211.233 18.3155 211.233 18.2364C211.233 18.0454 211.411 17.9008 211.769 17.8025V17.5351H208.124V17.8025C208.396 17.868 208.577 17.9581 208.671 18.0672C208.765 18.1791 208.811 18.3728 208.811 18.6512V27.476C208.811 27.7462 208.765 27.9399 208.671 28.0545C208.577 28.1691 208.396 28.2592 208.124 28.3247V28.5921H210.772V28.3247C210.5 28.2592 210.32 28.1691 210.225 28.0545C210.131 27.9399 210.085 27.7462 210.085 27.476V19.2706L215.194 28.5921L220.302 19.2706V27.476C220.302 27.7462 220.257 27.9399 220.162 28.0545C220.068 28.1691 219.888 28.2592 219.615 28.3247V28.5921H222.52V28.3247C222.248 28.2592 222.067 28.1691 221.973 28.0545C221.879 27.9399 221.833 27.7462 221.833 27.476V18.6512C221.833 18.381 221.879 18.1873 221.973 18.0727C222.067 17.9581 222.248 17.868 222.52 17.8025V17.5351H218.842V17.8025ZM236.073 26.933L232.255 19.2815C231.969 18.703 231.826 18.351 231.826 18.2255C231.826 18.0154 232.004 17.8735 232.362 17.7998V17.5324H228.879V17.7998C229.237 17.8516 229.415 17.9935 229.415 18.2255C229.415 18.3892 229.304 18.6921 229.083 19.1342L225.106 27.0913C224.886 27.5442 224.694 27.8526 224.533 28.0136C224.371 28.1746 224.147 28.2783 223.862 28.3247V28.5921H226.82V28.3247C226.448 28.2319 226.262 28.0736 226.262 27.8499C226.262 27.738 226.319 27.5661 226.435 27.3368L227.34 25.4813H233.642L234.569 27.3368C234.742 27.6916 234.828 27.9099 234.828 27.989C234.828 28.1473 234.661 28.2592 234.327 28.3247V28.5921H237.452V28.3247C237.166 28.2837 236.929 28.1691 236.743 27.9781C236.558 27.7871 236.337 27.4378 236.078 26.933H236.073ZM227.863 24.4061L230.514 18.9841L233.136 24.4061H227.863ZM249.959 27.8908L246.947 23.4865C248.071 23.3883 248.919 23.0936 249.499 22.6024C250.078 22.1112 250.366 21.4427 250.366 20.594C250.366 19.5544 249.951 18.763 249.121 18.2255C248.742 17.9744 248.297 17.7971 247.788 17.6934C247.276 17.5869 246.618 17.5351 245.81 17.5351H238.681V17.8025C238.953 17.868 239.133 17.9581 239.228 18.0672C239.319 18.1791 239.368 18.3728 239.368 18.6512V27.476C239.368 27.7462 239.322 27.9399 239.233 28.0545C239.144 28.1691 238.958 28.2592 238.681 28.3247V28.5921H241.585V28.3247C241.313 28.2592 241.13 28.1691 241.038 28.0545C240.944 27.9399 240.898 27.7462 240.898 27.476V23.5875H245.263L248.025 27.6043C248.189 27.8417 248.273 27.9999 248.273 28.0791C248.273 28.191 248.133 28.2728 247.855 28.3247V28.5921H250.827V28.3247C250.563 28.2919 250.377 28.251 250.275 28.1964C250.17 28.1418 250.064 28.0409 249.959 27.8908ZM240.898 22.5096V18.6102H245.638C246.802 18.6102 247.629 18.7712 248.114 19.0932C248.642 19.4425 248.906 19.961 248.906 20.6541C248.906 21.3472 248.623 21.8738 248.06 22.1631C247.801 22.2941 247.489 22.3841 247.122 22.436C246.753 22.4851 246.201 22.5096 245.465 22.5096H240.898ZM148.756 27.8908L145.744 23.4865C146.867 23.3883 147.716 23.0936 148.295 22.6024C148.875 22.1112 149.163 21.4427 149.163 20.594C149.163 19.5544 148.748 18.7658 147.918 18.2255C147.541 17.9744 147.094 17.7971 146.584 17.6934C146.073 17.5869 145.415 17.5351 144.607 17.5351H137.478V17.8025C137.75 17.868 137.93 17.9581 138.024 18.0672C138.116 18.1791 138.165 18.3728 138.165 18.6512V27.476C138.165 27.7462 138.119 27.9399 138.03 28.0545C137.941 28.1691 137.755 28.2592 137.478 28.3247V28.5921H140.382V28.3247C140.11 28.2592 139.927 28.1691 139.835 28.0545C139.743 27.9399 139.695 27.7462 139.695 27.476V23.5875H144.06L146.822 27.6043C146.986 27.8417 147.069 27.9999 147.069 28.0791C147.069 28.191 146.929 28.2728 146.652 28.3247V28.5921H149.624V28.3247C149.36 28.2919 149.174 28.251 149.071 28.1964C148.966 28.1418 148.861 28.0409 148.756 27.8908ZM139.698 22.5096V18.6102H144.437C145.601 18.6102 146.428 18.7712 146.913 19.0932C147.441 19.4425 147.705 19.961 147.705 20.6541C147.705 21.3472 147.422 21.8738 146.859 22.1631C146.601 22.2941 146.288 22.3841 145.922 22.436C145.553 22.4851 145 22.5096 144.265 22.5096H139.698ZM276.566 27.3887C276.44 27.4733 276.229 27.5142 275.928 27.5142H268.507V23.4183H273.193C273.487 23.4183 273.694 23.4593 273.821 23.5439C273.945 23.6284 274.044 23.7976 274.114 24.0487H274.405V21.7101H274.114C274.042 21.9612 273.947 22.1276 273.826 22.2149C273.705 22.2995 273.495 22.3432 273.193 22.3432H268.507V18.613H275.863C276.162 18.613 276.375 18.6539 276.496 18.7385C276.617 18.8231 276.714 18.9923 276.785 19.2433H277.073V16.9047H276.785C276.712 17.1558 276.617 17.3222 276.496 17.4096C276.375 17.4942 276.165 17.5378 275.863 17.5378H266.287V17.8052C266.559 17.8707 266.74 17.9608 266.834 18.0699C266.928 18.1818 266.974 18.3756 266.974 18.6539V27.4787C266.974 27.7489 266.928 27.9426 266.84 28.0572C266.751 28.1719 266.565 28.2619 266.287 28.3274V28.5948H275.936C276.235 28.5948 276.448 28.6385 276.569 28.7231C276.69 28.8077 276.785 28.9768 276.846 29.2252H277.146V26.8866H276.846C276.782 27.1404 276.688 27.3068 276.564 27.3914L276.566 27.3887ZM290.628 23.9668C290.386 23.5548 290.052 23.241 289.631 23.0254C289.238 22.8207 288.764 22.6734 288.211 22.5806C287.656 22.4878 286.84 22.4251 285.762 22.3923C284.469 22.3459 283.625 22.3077 283.232 22.2722C282.839 22.2395 282.475 22.1713 282.138 22.0649C281.801 21.9584 281.535 21.7811 281.333 21.5273C281.133 21.2735 281.034 20.9897 281.034 20.6732C281.034 19.9692 281.43 19.4179 282.224 19.025C283.017 18.6375 283.984 18.4438 285.118 18.4438C286.533 18.4438 287.734 18.6866 288.721 19.1751C289.187 19.3988 289.418 19.5899 289.418 19.7481C289.418 19.8218 289.4 19.9528 289.365 20.1438L289.623 20.2611L290.803 18.1081L290.537 17.9908C290.38 18.2337 290.243 18.3565 290.13 18.3565C290.095 18.3565 289.963 18.3128 289.734 18.2282C288.219 17.6088 286.711 17.3004 285.21 17.3004C283.566 17.3004 282.211 17.6088 281.147 18.2282C280.104 18.834 279.581 19.6663 279.581 20.725C279.581 21.3226 279.756 21.8438 280.107 22.2859C280.457 22.7143 280.918 23.0227 281.489 23.2137C281.939 23.3665 282.418 23.4729 282.925 23.5357C283.432 23.5984 284.275 23.653 285.455 23.6994C286.455 23.7321 287.136 23.7676 287.497 23.8085C287.858 23.8495 288.184 23.915 288.478 24.005C288.793 24.1114 289.047 24.2888 289.241 24.5371C289.435 24.7882 289.529 25.0692 289.529 25.3858C289.529 25.7269 289.416 26.0543 289.187 26.3681C288.958 26.6819 288.651 26.9303 288.265 27.1131C287.465 27.4951 286.46 27.6861 285.253 27.6861C283.93 27.6861 282.656 27.386 281.424 26.7884C280.694 26.4336 280.33 26.1635 280.33 25.9779C280.33 25.9124 280.349 25.8251 280.384 25.7214C280.392 25.6941 280.406 25.6423 280.427 25.5631L280.169 25.424L278.808 27.5251L279.053 27.6725C279.269 27.4433 279.428 27.3259 279.535 27.3259C279.592 27.3259 279.678 27.3587 279.794 27.4242C280.629 27.858 281.537 28.2019 282.513 28.4502C283.488 28.7012 284.42 28.824 285.307 28.824C287.109 28.824 288.551 28.4666 289.639 27.7489C290.547 27.1431 291 26.3299 291 25.3121C291 24.8236 290.879 24.3761 290.636 23.9641L290.628 23.9668ZM263.682 26.933L259.864 19.2815C259.578 18.703 259.435 18.351 259.435 18.2255C259.435 18.0154 259.613 17.8735 259.972 17.7998V17.5324H256.488V17.7998C256.846 17.8516 257.024 17.9935 257.024 18.2255C257.024 18.3892 256.914 18.6921 256.693 19.1342L252.716 27.0913C252.495 27.5442 252.303 27.8526 252.142 28.0136C251.98 28.1746 251.757 28.2783 251.471 28.3247V28.5921H254.429V28.3247C254.057 28.2319 253.872 28.0736 253.872 27.8499C253.872 27.738 253.928 27.5661 254.044 27.3368L254.949 25.4813H261.251L262.178 27.3368C262.351 27.6916 262.437 27.9099 262.437 27.989C262.437 28.1473 262.27 28.2592 261.936 28.3247V28.5921H265.061V28.3247C264.776 28.2837 264.539 28.1691 264.353 27.9781C264.167 27.7871 263.946 27.4378 263.687 26.933H263.682ZM255.472 24.4061L258.123 18.9841L260.745 24.4061H255.472ZM202.633 17.8025C202.905 17.868 203.085 17.9581 203.18 18.0672C203.274 18.1791 203.32 18.3728 203.32 18.6512V27.476C203.32 27.7462 203.274 27.9399 203.18 28.0545C203.088 28.1691 202.905 28.2592 202.633 28.3247V28.5921H205.537V28.3247C205.265 28.2592 205.082 28.1691 204.99 28.0545C204.896 27.9399 204.85 27.7462 204.85 27.476V18.6512C204.85 18.3756 204.896 18.1791 204.99 18.0672C205.082 17.9553 205.265 17.868 205.537 17.8025V17.5351H202.633V17.8025ZM163.597 18.8394C162.287 17.8134 160.566 17.3004 158.429 17.3004C157.214 17.3141 156.16 17.4751 155.266 17.7834C153.964 18.2309 152.954 18.9459 152.232 19.9255C151.553 20.8533 151.213 21.8984 151.213 23.0636C151.213 24.7882 151.911 26.1962 153.304 27.2877C154.614 28.3137 156.327 28.8268 158.45 28.8268C161.296 28.8268 163.365 27.9508 164.658 26.2017C165.345 25.2739 165.688 24.2533 165.688 23.14C165.688 21.3554 164.99 19.9228 163.597 18.8367V18.8394ZM162.686 26.2017C161.622 27.1895 160.21 27.6834 158.45 27.6834C156.691 27.6834 155.282 27.1895 154.215 26.2017C153.285 25.3448 152.822 24.2997 152.822 23.0636C152.822 21.8275 153.288 20.7796 154.215 19.9255C155.279 18.9377 156.683 18.4438 158.429 18.4438C160.194 18.4574 161.614 18.9513 162.686 19.9255C163.616 20.7605 164.079 21.8275 164.079 23.1236C164.079 24.3216 163.616 25.3476 162.686 26.2044V26.2017ZM179.391 21.9093C179.264 21.8247 179.17 21.6555 179.106 21.4045H178.763V23.9504H179.106C179.17 23.6994 179.264 23.5329 179.391 23.4456C179.515 23.361 179.728 23.3174 180.03 23.3174H183.492V25.806C182.864 26.3327 182.088 26.742 181.172 27.034C180.253 27.3259 179.286 27.4733 178.273 27.4733C176.349 27.4733 174.77 26.9958 173.534 26.0434C172.189 25.0119 171.518 23.623 171.518 21.882C171.518 20.1411 172.221 18.673 173.631 17.6197C174.859 16.6919 176.371 16.228 178.165 16.228C179.709 16.228 181.215 16.5964 182.686 17.3304C183.452 17.7043 183.834 17.9935 183.834 18.1955C183.834 18.2937 183.769 18.441 183.64 18.6375L183.918 18.8149L185.564 16.4054L185.276 16.228C185.039 16.5036 184.863 16.6428 184.75 16.6428C184.677 16.6428 184.489 16.5637 184.182 16.4054C183.123 15.8596 182.137 15.4667 181.223 15.2293C180.307 14.9919 179.316 14.8745 178.243 14.8745C177.02 14.8745 175.878 15.0492 174.813 15.3985C173.305 15.8978 172.106 16.6919 171.211 17.778C170.246 18.9568 169.764 20.3048 169.764 21.8247C169.764 22.8835 170.009 23.8904 170.502 24.8455C170.939 25.6805 171.529 26.3981 172.273 26.9985C173.781 28.2155 175.756 28.824 178.203 28.824C180.191 28.824 181.959 28.4229 183.511 27.6206C184.225 27.2523 184.987 26.7365 185.796 26.0707V25.7951C185.524 25.7296 185.34 25.6395 185.249 25.5277C185.157 25.4158 185.109 25.222 185.109 24.9437V23.1973C185.109 22.9217 185.154 22.7279 185.249 22.6161C185.34 22.5042 185.524 22.4141 185.796 22.3486V22.0321H180.038C179.736 22.0321 179.526 21.9885 179.399 21.9039L179.391 21.9093ZM197.635 17.8025C197.907 17.868 198.087 17.9581 198.182 18.0727C198.273 18.1873 198.322 18.381 198.322 18.6512V24.327C198.322 25.1293 198.287 25.6914 198.214 26.0107C198.141 26.3299 197.996 26.5973 197.775 26.8157C197.169 27.3942 196.002 27.6834 194.28 27.6834C192.723 27.6834 191.621 27.446 190.977 26.9739C190.662 26.7502 190.46 26.4718 190.365 26.1389C190.271 25.806 190.225 25.2029 190.225 24.327V18.6512C190.225 18.381 190.271 18.1873 190.365 18.0727C190.46 17.9581 190.64 17.868 190.912 17.8025V17.5351H188.008V17.8025C188.28 17.868 188.46 17.9581 188.555 18.0672C188.646 18.1791 188.695 18.3728 188.695 18.6512V24.6135C188.695 25.5086 188.765 26.1717 188.905 26.5973C189.045 27.0258 189.317 27.4105 189.727 27.7516C190.57 28.4693 192.041 28.8268 194.145 28.8268C195.611 28.8268 196.762 28.6576 197.597 28.3219C198.432 27.9863 199.009 27.4624 199.324 26.7529C199.51 26.3381 199.602 25.6232 199.602 24.6108V18.6484C199.602 18.3728 199.647 18.1764 199.742 18.0645C199.836 17.9526 200.017 17.8653 200.289 17.7998V17.5324H197.64V17.7998L197.635 17.8025Z" fill="#01655C"/>
</svg>
