<svg width="306" height="45" viewBox="0 0 306 45" fill="none" xmlns="http://www.w3.org/2000/svg">
<path d="M135.832 28.6626C135.699 28.7511 135.478 28.7939 135.16 28.7939H127.358V24.5076H132.285C132.593 24.5076 132.812 24.5504 132.945 24.6389C133.075 24.7274 133.18 24.9045 133.254 25.1672H133.56V22.7199H133.254C133.177 22.9826 133.078 23.1568 132.95 23.2482C132.823 23.3367 132.602 23.3824 132.285 23.3824H127.358V19.4787H135.092C135.407 19.4787 135.631 19.5215 135.758 19.61C135.886 19.6986 135.988 19.8756 136.061 20.1383H136.365V17.691H136.061C135.985 17.9537 135.886 18.1279 135.758 18.2193C135.631 18.3078 135.41 18.3535 135.092 18.3535H125.023V18.6334C125.309 18.7019 125.499 18.7962 125.598 18.9104C125.697 19.0275 125.746 19.2302 125.746 19.5215V28.7568C125.746 29.0395 125.697 29.2423 125.604 29.3622C125.51 29.4822 125.315 29.5764 125.023 29.6449V29.9248H135.169C135.483 29.9248 135.707 29.9705 135.835 30.059C135.962 30.1475 136.061 30.3246 136.129 30.5845H136.444V28.1371H136.129C136.061 28.4027 135.962 28.5769 135.832 28.6654V28.6626ZM119.263 18.6305C119.549 18.6991 119.739 18.7933 119.838 18.9075C119.937 19.0246 119.985 19.2274 119.985 19.5187V23.4024H111.653V19.5187C111.653 19.2302 111.701 19.0246 111.8 18.9075C111.897 18.7905 112.089 18.6991 112.375 18.6305V18.3507H109.321V18.6305C109.607 18.6991 109.797 18.7933 109.896 18.9075C109.993 19.0246 110.044 19.2274 110.044 19.5187V28.754C110.044 29.0367 109.995 29.2394 109.896 29.3594C109.797 29.4793 109.607 29.5735 109.321 29.6421V29.9219H112.375V29.6421C112.089 29.5735 111.897 29.4793 111.8 29.3594C111.701 29.2394 111.653 29.0367 111.653 28.754V24.5275H119.985V28.754C119.985 29.0367 119.937 29.2394 119.838 29.3594C119.739 29.4793 119.549 29.5735 119.263 29.6421V29.9219H122.317V29.6421C122.031 29.5735 121.838 29.4793 121.742 29.3594C121.643 29.2394 121.595 29.0367 121.595 28.754V19.5187C121.595 19.2359 121.643 19.0332 121.742 18.9132C121.838 18.7933 122.031 18.6991 122.317 18.6305V18.3507H119.263V18.6305ZM138.793 18.6305C139.079 18.6991 139.269 18.7933 139.368 18.9075C139.467 19.0246 139.515 19.2274 139.515 19.5187V28.754C139.515 29.0367 139.467 29.2394 139.368 29.3594C139.269 29.4793 139.079 29.5735 138.793 29.6421V29.9219H141.847V29.6421C141.561 29.5735 141.368 29.4793 141.272 29.3594C141.173 29.2394 141.124 29.0367 141.124 28.754V19.5187C141.124 19.2302 141.173 19.0246 141.272 18.9075C141.368 18.7905 141.561 18.6991 141.847 18.6305V18.3507H138.793V18.6305ZM47.8112 21.4834C48.5705 21.6776 49.0975 21.9289 49.3921 22.2373C49.6868 22.5457 49.8341 22.9997 49.8341 23.5994V36.9612H41.4873C38.2659 36.9298 35.3789 36.4415 32.8176 35.4963C34.9624 33.7543 36.6708 31.6782 37.9344 29.2623C39.3879 26.4608 40.1161 23.5052 40.1161 20.3954C40.1161 15.9348 38.6938 11.9739 35.8463 8.51567C34.9227 7.3991 33.8829 6.39389 32.7354 5.48864C35.342 4.47487 38.2574 3.96656 41.4845 3.96656H54.798L50.8626 0H41.4845C37.9656 0.0228455 34.6705 0.528303 31.5965 1.53065C30.4773 1.89904 29.4148 2.32453 28.409 2.80429C27.4032 2.32453 26.3408 1.90189 25.2216 1.53065C22.1504 0.531159 18.8553 0.0257012 15.3364 0.00285569H5.95833L2.02294 3.96941H15.3364C18.5635 3.96941 21.4789 4.47773 24.0855 5.4915C22.9409 6.39675 21.8982 7.40195 20.9746 8.51853C18.13 11.9768 16.7049 15.9348 16.7049 20.3982C16.7049 23.5081 17.433 26.4637 18.8865 29.2651C20.1529 31.6811 21.8586 33.7571 24.0033 35.4991C21.4421 36.4415 18.555 36.9327 15.3336 36.9641H6.98681V23.6023C6.98681 23.0026 7.13413 22.5485 7.42879 22.2401C7.72345 21.9317 8.25044 21.6804 9.00975 21.4862V20.5581H0V21.4862C0.759312 21.6804 1.2863 21.9317 1.58096 22.2401C1.87561 22.5485 2.02294 23.0026 2.02294 23.6023V41.9558C2.02294 42.5555 1.87561 43.0096 1.58096 43.318C1.2863 43.6264 0.759312 43.8777 0 44.0719V45H9.01258V44.0719C8.25327 43.8777 7.72629 43.6264 7.43163 43.318C7.13697 43.0096 6.98964 42.5555 6.98964 41.9558V40.9392H15.3364C20.3711 40.9278 24.7286 40.0368 28.4119 38.2777C32.0951 40.0397 36.4527 40.9278 41.4873 40.9392H49.8341V41.9558C49.8341 42.5555 49.6868 43.0096 49.3921 43.318C49.0975 43.6264 48.5705 43.8777 47.8112 44.0719V45H56.8238V44.0719C56.0644 43.8777 55.5375 43.6264 55.2428 43.318C54.9481 43.0096 54.8008 42.5555 54.8008 41.9558V23.6023C54.8008 23.0026 54.9481 22.5485 55.2428 22.2401C55.5375 21.9317 56.0644 21.6804 56.8238 21.4862V20.5581H47.8112V21.4862V21.4834ZM28.987 32.7719C28.7972 32.9176 28.6045 33.0546 28.4119 33.1946C28.2164 33.0575 28.0237 32.9176 27.8367 32.7719C23.873 29.742 21.8926 25.6698 21.8926 20.5553C21.8926 15.4407 23.9693 11.1372 28.1201 8.0502C28.2164 7.9788 28.3155 7.91027 28.4147 7.83888C28.511 7.91027 28.613 7.97595 28.7094 8.0502C32.8601 11.1372 34.9369 15.3065 34.9369 20.5553C34.9369 25.804 32.9564 29.742 28.9927 32.7719H28.987ZM269.55 16.6658C269.451 16.5487 269.403 16.4516 269.403 16.3774C269.403 16.2546 269.474 16.1347 269.613 16.0204C269.751 15.9062 269.896 15.8491 270.046 15.8491C270.205 15.8491 270.355 15.8719 270.496 15.9205L272.12 16.4688C272.443 16.5801 272.735 16.6344 272.998 16.6344C273.554 16.6344 274.072 16.3031 274.554 15.6435C274.653 15.5207 274.746 15.4579 274.834 15.4579C274.894 15.4579 274.976 15.4779 275.084 15.5207L275.242 15.2837L273.777 14.4155L273.596 14.6126C273.715 14.7297 273.777 14.8353 273.777 14.9324C273.777 15.0638 273.712 15.1837 273.579 15.2951C273.449 15.4065 273.307 15.4607 273.157 15.4607C272.993 15.4607 272.814 15.4264 272.627 15.3579L270.992 14.8011C270.76 14.7182 270.542 14.6783 270.338 14.6783C269.655 14.6783 269.097 14.9667 268.669 15.5464C268.542 15.7063 268.408 15.7834 268.275 15.7834C268.216 15.7834 268.136 15.7691 268.037 15.7406L267.89 15.9262L269.377 16.8572L269.547 16.6715L269.55 16.6658ZM83.4762 16.583C82.9804 16.2946 82.4165 16.0947 81.7847 15.9833C81.1529 15.8719 80.2689 15.8177 79.1356 15.8177H71.041V16.1489C71.313 16.2175 71.5 16.3089 71.6048 16.4174C71.7097 16.5287 71.7635 16.6858 71.7635 16.8914V28.8339C71.7635 29.0481 71.7097 29.208 71.6048 29.3194C71.5 29.4308 71.3102 29.5193 71.041 29.5878V29.9191H74.2539V29.5878C73.9819 29.5193 73.795 29.4279 73.6901 29.3194C73.5853 29.208 73.5315 29.0481 73.5315 28.8339V23.5766H79.1356C80.5494 23.5766 81.6374 23.4709 82.3995 23.2625C83.1617 23.054 83.7935 22.6828 84.2893 22.1516C84.9353 21.4634 85.2583 20.6352 85.2583 19.6729C85.2583 18.9704 85.0826 18.3364 84.7285 17.771C84.414 17.2684 83.9947 16.8714 83.4762 16.583ZM82.34 21.7804C82.0086 21.9603 81.6346 22.0802 81.2181 22.143C80.8016 22.2059 80.1641 22.2373 79.3085 22.2373H73.5343V17.1656H79.3085C80.1726 17.1656 80.8129 17.197 81.2237 17.2598C81.6374 17.3226 82.0086 17.4426 82.34 17.6225C83.1079 18.0366 83.4903 18.7305 83.4903 19.71C83.4903 20.6895 83.1079 21.372 82.34 21.7861V21.7804ZM103.827 18.6305C104.114 18.6991 104.303 18.7933 104.403 18.9075C104.502 19.0246 104.55 19.2274 104.55 19.5187V27.5546L97.0985 19.9099C96.8123 19.6215 96.6707 19.373 96.6707 19.1674C96.6707 18.9275 96.8661 18.7476 97.2571 18.6305V18.3507H93.1546V18.6305C93.4407 18.6991 93.6306 18.7933 93.7297 18.9075C93.8289 19.0246 93.8771 19.2274 93.8771 19.5187V28.754C93.8771 29.0367 93.8289 29.2394 93.7354 29.3594C93.6419 29.4793 93.4464 29.5735 93.1546 29.6421V29.9219H95.9397V29.6421C95.645 29.5735 95.4524 29.4793 95.3589 29.3594C95.2654 29.2394 95.2172 29.0367 95.2172 28.754V20.1583L103.357 28.4427C103.717 28.8139 103.898 29.0738 103.898 29.2166C103.898 29.4108 103.703 29.5507 103.312 29.6392V29.9191H106.615V29.6392C106.321 29.5707 106.128 29.4765 106.035 29.3565C105.941 29.2366 105.893 29.0338 105.893 28.7511V19.5158C105.893 19.2274 105.941 19.0218 106.04 18.9047C106.137 18.7876 106.329 18.6962 106.615 18.6277V18.3478H103.83V18.6277L103.827 18.6305ZM87.3776 18.6305C87.6637 18.6991 87.8536 18.7933 87.9527 18.9075C88.0519 19.0246 88.1001 19.2274 88.1001 19.5187V28.754C88.1001 29.0367 88.0519 29.2394 87.9527 29.3594C87.8536 29.4793 87.6637 29.5735 87.3776 29.6421V29.9219H90.4318V29.6421C90.1457 29.5735 89.953 29.4793 89.8567 29.3594C89.7603 29.2394 89.7093 29.0367 89.7093 28.754V19.5187C89.7093 19.2302 89.7575 19.0246 89.8567 18.9075C89.953 18.7905 90.1457 18.6991 90.4318 18.6305V18.3507H87.3776V18.6305ZM230.123 18.6305C230.499 18.7333 230.686 18.8847 230.686 19.0846C230.686 19.1874 230.596 19.4044 230.414 19.7357L226.397 27.1234L222.402 19.7357C222.215 19.3844 222.121 19.1674 222.121 19.0846C222.121 18.8847 222.308 18.7333 222.685 18.6305V18.3507H218.852V18.6305C219.138 18.6991 219.328 18.7933 219.427 18.9075C219.526 19.0246 219.574 19.2274 219.574 19.5187V28.754C219.574 29.0367 219.526 29.2394 219.427 29.3594C219.328 29.4793 219.138 29.5735 218.852 29.6421V29.9219H221.637V29.6421C221.351 29.5735 221.161 29.4793 221.062 29.3594C220.963 29.2394 220.915 29.0367 220.915 28.754V20.1669L226.286 29.9219L231.658 20.1669V28.754C231.658 29.0367 231.61 29.2394 231.511 29.3594C231.412 29.4793 231.222 29.5735 230.936 29.6421V29.9219H233.99V29.6421C233.704 29.5735 233.514 29.4793 233.415 29.3594C233.316 29.2394 233.268 29.0367 233.268 28.754V19.5187C233.268 19.2359 233.316 19.0332 233.415 18.9132C233.514 18.7933 233.704 18.6991 233.99 18.6305V18.3507H230.123V18.6305ZM248.241 28.1857L244.227 20.1783C243.926 19.5729 243.776 19.2045 243.776 19.0732C243.776 18.8533 243.963 18.7048 244.34 18.6277V18.3478H240.676V18.6277C241.053 18.6819 241.24 18.8304 241.24 19.0732C241.24 19.2445 241.124 19.5615 240.892 20.0241L236.71 28.3513C236.478 28.8254 236.276 29.1481 236.106 29.3165C235.936 29.485 235.701 29.5935 235.401 29.6421V29.9219H238.512V29.6421C238.121 29.545 237.925 29.3794 237.925 29.1452C237.925 29.0281 237.985 28.8482 238.107 28.6083L239.059 26.6665H245.686L246.66 28.6083C246.842 28.9796 246.932 29.208 246.932 29.2908C246.932 29.4565 246.757 29.5735 246.405 29.6421V29.9219H249.692V29.6421C249.392 29.5993 249.142 29.4793 248.947 29.2794C248.751 29.0795 248.519 28.714 248.247 28.1857H248.241ZM239.608 25.5413L242.396 19.8671L245.153 25.5413H239.608ZM262.844 29.188L259.676 24.5789C260.858 24.4761 261.75 24.1677 262.359 23.6537C262.969 23.1397 263.272 22.44 263.272 21.5519C263.272 20.4639 262.835 19.6357 261.963 19.0732C261.563 18.8104 261.096 18.6248 260.56 18.5163C260.022 18.4049 259.331 18.3507 258.481 18.3507H250.984V18.6305C251.27 18.6991 251.46 18.7933 251.559 18.9075C251.655 19.0246 251.706 19.2274 251.706 19.5187V28.754C251.706 29.0367 251.658 29.2394 251.565 29.3594C251.471 29.4793 251.276 29.5735 250.984 29.6421V29.9219H254.038V29.6421C253.752 29.5735 253.559 29.4793 253.463 29.3594C253.364 29.2394 253.316 29.0367 253.316 28.754V24.6846H257.906L260.81 28.8882C260.982 29.1366 261.07 29.3023 261.07 29.3851C261.07 29.5022 260.923 29.5878 260.631 29.6421V29.9219H263.756V29.6421C263.479 29.6078 263.283 29.565 263.175 29.5079C263.065 29.4508 262.954 29.3451 262.844 29.188ZM253.316 23.5566V19.4758H258.299C259.523 19.4758 260.393 19.6443 260.903 19.9813C261.458 20.3468 261.736 20.8894 261.736 21.6147C261.736 22.3401 261.439 22.8912 260.846 23.1939C260.574 23.331 260.246 23.4252 259.86 23.4795C259.472 23.5309 258.891 23.5566 258.118 23.5566H253.316ZM156.424 29.188L153.256 24.5789C154.438 24.4761 155.33 24.1677 155.939 23.6537C156.549 23.1397 156.852 22.44 156.852 21.5519C156.852 20.4639 156.415 19.6386 155.543 19.0732C155.146 18.8104 154.676 18.6248 154.14 18.5163C153.602 18.4049 152.911 18.3507 152.061 18.3507H144.564V18.6305C144.85 18.6991 145.04 18.7933 145.139 18.9075C145.235 19.0246 145.286 19.2274 145.286 19.5187V28.754C145.286 29.0367 145.238 29.2394 145.145 29.3594C145.051 29.4793 144.856 29.5735 144.564 29.6421V29.9219H147.618V29.6421C147.332 29.5735 147.139 29.4793 147.043 29.3594C146.947 29.2394 146.896 29.0367 146.896 28.754V24.6846H151.486L154.39 28.8882C154.563 29.1366 154.65 29.3023 154.65 29.3851C154.65 29.5022 154.503 29.5878 154.211 29.6421V29.9219H157.336V29.6421C157.059 29.6078 156.863 29.565 156.755 29.5079C156.645 29.4508 156.534 29.3451 156.424 29.188ZM146.899 23.5566V19.4758H151.882C153.106 19.4758 153.976 19.6443 154.486 19.9813C155.041 20.3468 155.319 20.8894 155.319 21.6147C155.319 22.3401 155.022 22.8912 154.429 23.1939C154.157 23.331 153.829 23.4252 153.443 23.4795C153.055 23.5309 152.474 23.5566 151.701 23.5566H146.899ZM290.822 28.6626C290.689 28.7511 290.468 28.7939 290.151 28.7939H282.348V24.5076H287.275C287.584 24.5076 287.802 24.5504 287.935 24.6389C288.065 24.7274 288.17 24.9045 288.244 25.1672H288.55V22.7199H288.244C288.167 22.9826 288.068 23.1568 287.941 23.2482C287.813 23.3367 287.592 23.3824 287.275 23.3824H282.348V19.4787H290.083C290.397 19.4787 290.621 19.5215 290.749 19.61C290.876 19.6986 290.978 19.8756 291.052 20.1383H291.355V17.691H291.052C290.975 17.9537 290.876 18.1279 290.749 18.2193C290.621 18.3078 290.4 18.3535 290.083 18.3535H280.013V18.6334C280.3 18.7019 280.489 18.7962 280.589 18.9104C280.688 19.0275 280.736 19.2302 280.736 19.5215V28.7568C280.736 29.0395 280.688 29.2423 280.594 29.3622C280.501 29.4822 280.305 29.5764 280.013 29.6449V29.9248H290.159C290.474 29.9248 290.698 29.9705 290.825 30.059C290.953 30.1475 291.052 30.3246 291.117 30.5845H291.431V28.1371H291.117C291.049 28.4027 290.95 28.5769 290.819 28.6654L290.822 28.6626ZM305.609 25.0815C305.354 24.6503 305.003 24.3219 304.561 24.0963C304.147 23.8822 303.648 23.7279 303.068 23.6309C302.484 23.5338 301.625 23.4681 300.492 23.4338C299.132 23.3853 298.245 23.3453 297.832 23.3082C297.418 23.2739 297.036 23.2025 296.681 23.0911C296.327 22.9798 296.047 22.7941 295.834 22.5286C295.625 22.263 295.52 21.966 295.52 21.6347C295.52 20.898 295.936 20.3211 296.772 19.9099C297.605 19.5044 298.622 19.3016 299.815 19.3016C301.302 19.3016 302.566 19.5558 303.603 20.0669C304.093 20.3011 304.337 20.501 304.337 20.6666C304.337 20.7437 304.317 20.8808 304.28 21.0807L304.552 21.2035L305.793 18.9504L305.513 18.8276C305.348 19.0817 305.204 19.2102 305.085 19.2102C305.048 19.2102 304.909 19.1646 304.668 19.076C303.076 18.4278 301.489 18.1051 299.911 18.1051C298.183 18.1051 296.758 18.4278 295.639 19.076C294.542 19.71 293.993 20.581 293.993 21.689C293.993 22.3144 294.177 22.8598 294.545 23.3224C294.913 23.7708 295.398 24.0935 295.999 24.2934C296.472 24.4533 296.976 24.5647 297.509 24.6303C298.041 24.696 298.928 24.7531 300.169 24.8017C301.22 24.836 301.937 24.8731 302.317 24.9159C302.696 24.9587 303.039 25.0273 303.348 25.1215C303.68 25.2329 303.946 25.4185 304.15 25.6784C304.354 25.9411 304.453 26.2352 304.453 26.5665C304.453 26.9235 304.334 27.2662 304.093 27.5946C303.852 27.923 303.529 28.1828 303.124 28.3742C302.283 28.774 301.226 28.9739 299.957 28.9739C298.566 28.9739 297.225 28.6597 295.931 28.0343C295.163 27.6631 294.78 27.3804 294.78 27.1862C294.78 27.1177 294.8 27.0263 294.837 26.9178C294.845 26.8892 294.86 26.8349 294.882 26.7521L294.61 26.6065L293.18 28.8054L293.437 28.9596C293.664 28.7197 293.831 28.5969 293.944 28.5969C294.004 28.5969 294.095 28.6312 294.216 28.6997C295.095 29.1538 296.05 29.5136 297.075 29.7734C298.101 30.0362 299.081 30.1647 300.013 30.1647C301.909 30.1647 303.425 29.7906 304.569 29.0395C305.524 28.4056 306 27.5546 306 26.4894C306 25.9782 305.873 25.5099 305.618 25.0787L305.609 25.0815ZM277.274 28.1857L273.259 20.1783C272.959 19.5729 272.808 19.2045 272.808 19.0732C272.808 18.8533 272.995 18.7048 273.372 18.6277V18.3478H269.709V18.6277C270.086 18.6819 270.273 18.8304 270.273 19.0732C270.273 19.2445 270.156 19.5615 269.924 20.0241L265.742 28.3513C265.51 28.8254 265.309 29.1481 265.139 29.3165C264.969 29.485 264.734 29.5935 264.433 29.6421V29.9219H267.544V29.6421C267.153 29.545 266.958 29.3794 266.958 29.1452C266.958 29.0281 267.017 28.8482 267.139 28.6083L268.091 26.6665H274.718L275.693 28.6083C275.874 28.9796 275.965 29.208 275.965 29.2908C275.965 29.4565 275.789 29.5735 275.438 29.6421V29.9219H278.724V29.6421C278.424 29.5993 278.175 29.4793 277.979 29.2794C277.784 29.0795 277.551 28.714 277.279 28.1857H277.274ZM268.641 25.5413L271.429 19.8671L274.185 25.5413H268.641ZM213.078 18.6305C213.364 18.6991 213.554 18.7933 213.653 18.9075C213.752 19.0246 213.8 19.2274 213.8 19.5187V28.754C213.8 29.0367 213.752 29.2394 213.653 29.3594C213.557 29.4793 213.364 29.5735 213.078 29.6421V29.9219H216.132V29.6421C215.846 29.5735 215.653 29.4793 215.557 29.3594C215.458 29.2394 215.41 29.0367 215.41 28.754V19.5187C215.41 19.2302 215.458 19.0246 215.557 18.9075C215.653 18.7905 215.846 18.6991 216.132 18.6305V18.3507H213.078V18.6305ZM172.03 19.7157C170.653 18.642 168.842 18.1051 166.595 18.1051C165.318 18.1194 164.21 18.2879 163.269 18.6105C161.901 19.0789 160.838 19.8271 160.079 20.8523C159.365 21.8232 159.008 22.9169 159.008 24.1363C159.008 25.9411 159.742 27.4146 161.207 28.5569C162.583 29.6307 164.385 30.1675 166.618 30.1675C169.61 30.1675 171.786 29.2509 173.146 27.4204C173.868 26.4494 174.228 25.3814 174.228 24.2163C174.228 22.3486 173.494 20.8494 172.03 19.7128V19.7157ZM171.072 27.4204C169.953 28.4541 168.468 28.971 166.618 28.971C164.768 28.971 163.286 28.4541 162.164 27.4204C161.187 26.5237 160.699 25.4299 160.699 24.1363C160.699 22.8427 161.19 21.7461 162.164 20.8523C163.283 19.8185 164.759 19.3016 166.595 19.3016C168.451 19.3159 169.944 19.8328 171.072 20.8523C172.049 21.7261 172.537 22.8427 172.537 24.1991C172.537 25.4528 172.049 26.5265 171.072 27.4232V27.4204ZM188.638 22.9284C188.505 22.8398 188.406 22.6628 188.338 22.4001H187.978V25.0644H188.338C188.406 24.8017 188.505 24.6275 188.638 24.5361C188.768 24.4476 188.992 24.4019 189.31 24.4019H192.95V27.0063C192.29 27.5574 191.474 27.9858 190.511 28.2913C189.545 28.5969 188.528 28.7511 187.462 28.7511C185.439 28.7511 183.779 28.2514 182.479 27.2547C181.065 26.1753 180.359 24.7217 180.359 22.8998C180.359 21.0779 181.099 19.5415 182.581 18.4392C183.873 17.4683 185.462 16.9828 187.349 16.9828C188.972 16.9828 190.556 17.3683 192.103 18.1365C192.908 18.5277 193.31 18.8304 193.31 19.0418C193.31 19.1446 193.242 19.2988 193.106 19.5044L193.398 19.69L195.129 17.1684L194.826 16.9828C194.577 17.2712 194.392 17.4169 194.273 17.4169C194.197 17.4169 193.999 17.3341 193.676 17.1684C192.562 16.5973 191.525 16.1861 190.565 15.9376C189.601 15.6892 188.559 15.5664 187.431 15.5664C186.145 15.5664 184.944 15.7491 183.824 16.1147C182.238 16.6373 180.977 17.4683 180.036 18.6048C179.022 19.8385 178.515 21.2492 178.515 22.8398C178.515 23.9478 178.773 25.0016 179.291 26.0011C179.75 26.8749 180.371 27.626 181.153 28.2542C182.739 29.5279 184.816 30.1647 187.389 30.1647C189.48 30.1647 191.338 29.7449 192.97 28.9053C193.721 28.5198 194.523 27.9801 195.373 27.2833V26.9949C195.087 26.9263 194.894 26.8321 194.798 26.715C194.701 26.5979 194.65 26.3952 194.65 26.1039V24.2762C194.65 23.9878 194.698 23.7851 194.798 23.668C194.894 23.5509 195.087 23.4567 195.373 23.3881V23.0569H189.318C189.001 23.0569 188.78 23.0112 188.647 22.9226L188.638 22.9284ZM207.822 18.6305C208.108 18.6991 208.298 18.7933 208.397 18.9132C208.494 19.0332 208.545 19.2359 208.545 19.5187V25.4585C208.545 26.2981 208.508 26.8863 208.431 27.2205C208.355 27.5546 208.202 27.8344 207.969 28.0629C207.332 28.6683 206.105 28.971 204.295 28.971C202.657 28.971 201.498 28.7226 200.821 28.2285C200.49 27.9944 200.277 27.7031 200.178 27.3547C200.079 27.0063 200.031 26.3752 200.031 25.4585V19.5187C200.031 19.2359 200.079 19.0332 200.178 18.9132C200.277 18.7933 200.467 18.6991 200.753 18.6305V18.3507H197.699V18.6305C197.985 18.6991 198.175 18.7933 198.274 18.9075C198.37 19.0246 198.421 19.2274 198.421 19.5187V25.7583C198.421 26.695 198.495 27.3889 198.642 27.8344C198.79 28.2828 199.076 28.6854 199.506 29.0424C200.393 29.7934 201.94 30.1675 204.153 30.1675C205.694 30.1675 206.904 29.9905 207.782 29.6392C208.661 29.288 209.267 28.7397 209.599 27.9972C209.794 27.5631 209.89 26.815 209.89 25.7555V19.5158C209.89 19.2274 209.939 19.0218 210.038 18.9047C210.137 18.7876 210.327 18.6962 210.613 18.6277V18.3478H207.828V18.6277L207.822 18.6305Z" fill="white"/>
</svg>
