<svg width="11" height="21" viewBox="0 0 11 21" fill="none" xmlns="http://www.w3.org/2000/svg">
<path d="M8.71042 10.0058L0.21842 18.7328C0.148504 18.8031 0.0932303 18.8866 0.0557958 18.9784C0.0183612 19.0703 -0.000490115 19.1686 0.000333851 19.2678C0.00115782 19.3669 0.0216399 19.4649 0.0605946 19.5561C0.0995493 19.6473 0.156203 19.7299 0.227278 19.7991C0.298352 19.8682 0.382437 19.9226 0.474665 19.959C0.566893 19.9955 0.665435 20.0133 0.764585 20.0114C0.863736 20.0095 0.961528 19.988 1.0523 19.948C1.14307 19.9081 1.22503 19.8506 1.29342 19.7788L10.2934 10.5288C10.4296 10.3888 10.5059 10.2011 10.5059 10.0058C10.5059 9.81042 10.4296 9.62278 10.2934 9.48277L1.29342 0.232766C1.22503 0.160953 1.14308 0.103418 1.0523 0.0634872C0.96153 0.0235568 0.863738 0.00202476 0.764587 0.000136477C0.665437 -0.00175181 0.566894 0.0160418 0.474666 0.0524894C0.382438 0.0889369 0.298354 0.143312 0.227279 0.212468C0.156205 0.281625 0.099551 0.364192 0.0605963 0.45539C0.0216415 0.546588 0.00115945 0.644605 0.00033547 0.74377C-0.000488513 0.842935 0.0183628 0.941279 0.0557973 1.03311C0.0932319 1.12494 0.148506 1.20844 0.218422 1.27877L8.71042 10.0058Z" fill="white"/>
</svg>
