<svg width="11" height="21" viewBox="0 0 11 21" fill="none" xmlns="http://www.w3.org/2000/svg">
<path d="M1.79544 10.0058L10.2874 1.27877C10.3574 1.20844 10.4126 1.12494 10.4501 1.03311C10.4875 0.941281 10.5063 0.842936 10.5055 0.743771C10.5047 0.644606 10.4842 0.546589 10.4453 0.455392C10.4063 0.364195 10.3497 0.281629 10.2786 0.212471C10.2075 0.143313 10.1234 0.0889379 10.0312 0.0524912C9.93897 0.0160444 9.84042 -0.00175009 9.74127 0.000137605C9.64212 0.0020253 9.54433 0.0235577 9.45356 0.0634886C9.36278 0.103419 9.28083 0.160956 9.21244 0.232769L0.212438 9.48277C0.0762161 9.62278 -1.71531e-06 9.81042 -1.74946e-06 10.0058C-1.78362e-06 10.2011 0.076216 10.3888 0.212438 10.5288L9.21244 19.7788C9.28083 19.8506 9.36278 19.9081 9.45355 19.948C9.54433 19.988 9.64212 20.0095 9.74127 20.0114C9.84042 20.0133 9.93896 19.9955 10.0312 19.959C10.1234 19.9226 10.2075 19.8682 10.2786 19.7991C10.3497 19.7299 10.4063 19.6473 10.4453 19.5561C10.4842 19.4649 10.5047 19.3669 10.5055 19.2678C10.5063 19.1686 10.4875 19.0703 10.4501 18.9784C10.4126 18.8866 10.3574 18.8031 10.2874 18.7328L1.79544 10.0058Z" fill="white"/>
</svg>
