<svg width="84" height="84" viewBox="0 0 84 84" fill="none" xmlns="http://www.w3.org/2000/svg">
<path d="M57.9998 53.2099C47.3558 64.41 20.206 37.5031 30.8899 26.2585C37.4141 19.3918 30.0455 11.5473 25.9657 5.77388C18.3083 -5.04846 1.50459 9.89392 2.01124 19.4007C3.6245 49.3832 36.0541 84.9124 67.4571 81.8102C77.2789 80.8413 88.5673 63.0989 77.3011 56.6144C71.6658 53.3699 63.9284 46.9698 57.9998 53.2055M50.889 2.0005C59.1398 2.0005 67.0527 5.27831 72.8869 11.1128C78.7211 16.9474 81.9987 24.8607 81.9987 33.1119M50.889 19.7785C54.425 19.7785 57.8163 21.1832 60.3167 23.6837C62.817 26.1843 64.2217 29.5757 64.2217 33.1119" stroke="#01655C" stroke-width="4" stroke-linecap="round" stroke-linejoin="round"/>
</svg>
