<svg width="87" height="87" viewBox="0 0 87 87" fill="none" xmlns="http://www.w3.org/2000/svg">
<path d="M66.0175 75.6851V6.34C66.0138 5.0575 65.5028 3.82859 64.5962 2.92172C63.6895 2.01485 62.4609 1.50372 61.1787 1.5H6.33882C5.05663 1.50372 3.82802 2.01485 2.92137 2.92172C2.01472 3.82859 1.50372 5.0575 1.5 6.34V77.3266C1.50638 79.4641 2.3581 81.5122 3.86914 83.0236C5.38019 84.535 7.42777 85.3869 9.56469 85.3933H75.6952" stroke="#01655C" stroke-width="3" stroke-linejoin="round"/>
<path d="M75.6952 85.3933C73.1285 85.3933 70.667 84.3734 68.8521 82.5581C67.0372 80.7427 66.0176 78.2806 66.0176 75.7133V17.6333H80.534C81.8174 17.6333 83.0481 18.1432 83.9556 19.0509C84.863 19.9586 85.3728 21.1897 85.3728 22.4733V75.7133C85.3728 78.2806 84.3532 80.7427 82.5383 82.5581C80.7234 84.3734 78.2619 85.3933 75.6952 85.3933Z" stroke="#01655C" stroke-width="3" stroke-linejoin="round"/>
<path d="M40.2106 17.6333H53.1141M40.2106 30.54H53.1141M14.4036 43.4466H53.1141M14.4036 56.3533H53.1141M14.4036 69.2599H53.1141" stroke="#01655C" stroke-width="3" stroke-linecap="round" stroke-linejoin="round"/>
<path d="M27.3071 33.7667H14.4035C13.548 33.7667 12.7275 33.4268 12.1225 32.8217C11.5175 32.2165 11.1777 31.3958 11.1777 30.5401V17.6334C11.1777 16.7776 11.5175 15.9569 12.1225 15.3518C12.7275 14.7467 13.548 14.4067 14.4035 14.4067H27.3071C28.1626 14.4067 28.9831 14.7467 29.5881 15.3518C30.1931 15.9569 30.5329 16.7776 30.5329 17.6334V30.5401C30.5329 31.3958 30.1931 32.2165 29.5881 32.8217C28.9831 33.4268 28.1626 33.7667 27.3071 33.7667Z" fill="#01655C"/>
</svg>
